nColumns=19
nRows=26
DataType=double
version=3
OpenSimVersion=4.1
endheader
time	ground_force_calcn_r_vx	ground_force_calcn_r_vy	ground_force_calcn_r_vz	ground_force_calcn_r_px	ground_force_calcn_r_py	ground_force_calcn_r_pz	ground_force_calcn_r_mx	ground_force_calcn_r_my	ground_force_calcn_r_mz	ground_force_calcn_l_vx	ground_force_calcn_l_vy	ground_force_calcn_l_vz	ground_force_calcn_l_px	ground_force_calcn_l_py	ground_force_calcn_l_pz	ground_force_calcn_l_mx	ground_force_calcn_l_my	ground_force_calcn_l_mz
9.88	-8.02152	232.559	-46.2815	-0.190001	0	-0.436849	0.0618852	-1.79417	0.357057	9.40823	350.159	74.714	-0.274166	0	-0.997334	0.0161841	0.602347	0.128524
9.89	-7.97483	231.987	-46.4365	-0.19023	0	-0.436759	0.061102	-1.77745	0.355789	9.52192	352.921	74.8305	-0.274223	0	-0.997294	0.0165746	0.614322	0.130256
9.9	-7.95759	231.574	-46.6308	-0.190484	0	-0.436657	0.0606029	-1.76361	0.355128	9.64733	355.268	74.8594	-0.274277	0	-0.997257	0.0169533	0.624314	0.131551
9.91	-7.96745	231.282	-46.854	-0.19074	0	-0.436542	0.0603896	-1.75301	0.355132	9.77351	357.217	74.8129	-0.274319	0	-0.997227	0.0173114	0.632724	0.132513
9.92	-8.00413	231.078	-47.0964	-0.19098	0	-0.436416	0.060468	-1.74571	0.355795	9.89151	358.789	74.702	-0.274342	0	-0.997209	0.0176478	0.640128	0.133278
9.93	-8.06899	230.939	-47.3508	-0.191189	0	-0.436279	0.0608469	-1.74147	0.357064	9.99668	360.006	74.5337	-0.274344	0	-0.997203	0.0179694	0.647125	0.133977
9.94	-8.1633	230.847	-47.6124	-0.191359	0	-0.436133	0.0615296	-1.73997	0.358871	10.0899	360.895	74.311	-0.274325	0	-0.997209	0.0182908	0.654225	0.13471
9.95	-8.28621	230.79	-47.8771	-0.191493	0	-0.435977	0.062503	-1.74086	0.361138	10.1767	361.48	74.034	-0.27429	0	-0.99722	0.0186335	0.661869	0.135556
9.96	-8.43384	230.76	-48.1401	-0.191597	0	-0.435817	0.0637329	-1.74381	0.363785	10.265	361.797	73.7024	-0.274247	0	-0.997235	0.0190223	0.670454	0.13658
9.97	-8.60033	230.747	-48.3951	-0.191683	0	-0.435656	0.0651712	-1.74855	0.366726	10.3617	361.889	73.3183	-0.2742	0	-0.997249	0.0194793	0.680323	0.137833
9.98	-8.77866	230.747	-48.6335	-0.191763	0	-0.435499	0.0667634	-1.75487	0.369867	10.4695	361.805	72.8871	-0.27415	0	-0.99726	0.0200169	0.691745	0.139355
9.99	-8.9597	230.754	-48.8438	-0.191852	0	-0.435352	0.0684419	-1.7627	0.373111	10.5863	361.595	72.4167	-0.274094	0	-0.99727	0.0206382	0.704933	0.141177
10	-9.13233	230.768	-49.0142	-0.191969	0	-0.435224	0.0701238	-1.77198	0.376362	10.7077	361.3	71.9162	-0.274024	0	-0.997277	0.0213376	0.719976	0.14331
10.01	-9.28522	230.794	-49.1348	-0.192132	0	-0.435122	0.0717216	-1.78271	0.379531	10.8283	360.96	71.3956	-0.273934	0	-0.997288	0.0221027	0.736791	0.145733
10.02	-9.40877	230.842	-49.1992	-0.192359	0	-0.435053	0.0731546	-1.79483	0.382531	10.9429	360.605	70.865	-0.273814	0	-0.997303	0.0229189	0.755253	0.14842
10.03	-9.4954	230.926	-49.2057	-0.192664	0	-0.435024	0.0743457	-1.80807	0.385264	11.0495	360.266	70.3338	-0.273662	0	-0.997324	0.0237784	0.775286	0.151357
10.04	-9.53963	231.058	-49.1575	-0.193055	0	-0.435035	0.0752225	-1.82196	0.38762	11.1503	359.967	69.8099	-0.27348	0	-0.997353	0.024679	0.796717	0.154511
10.05	-9.53822	231.25	-49.0614	-0.193539	0	-0.435086	0.0757238	-1.83589	0.389498	11.252	359.73	69.2987	-0.273273	0	-0.99739	0.0256268	0.819293	0.157829
10.06	-9.48912	231.507	-48.9265	-0.194117	0	-0.435174	0.0757993	-1.84928	0.390826	11.3647	359.575	68.8046	-0.273053	0	-0.997428	0.0266374	0.8428	0.16127
10.07	-9.3905	231.832	-48.7636	-0.194795	0	-0.435295	0.0754073	-1.86165	0.39158	11.497	359.522	68.3322	-0.272827	0	-0.997465	0.0277304	0.867152	0.164815
10.08	-9.24023	232.229	-48.5855	-0.195573	0	-0.435442	0.0745109	-1.87264	0.391781	11.6518	359.584	67.8875	-0.2726	0	-0.9975	0.0289091	0.892158	0.168434
10.09	-9.03701	232.706	-48.4069	-0.196452	0	-0.43561	0.0730897	-1.88208	0.391506	11.8236	359.778	67.4775	-0.272368	0	-0.997533	0.030151	0.917457	0.172072
10.1	-8.78183	233.269	-48.2441	-0.197431	0	-0.43579	0.0711503	-1.88994	0.390873	12.0023	360.116	67.1102	-0.272126	0	-0.997564	0.0314192	0.942697	0.175678
10.11	-8.47869	233.924	-48.113	-0.198499	0	-0.435975	0.0687285	-1.89619	0.390006	12.1763	360.608	66.7929	-0.271864	0	-0.997595	0.0326723	0.967606	0.179223
10.12	-8.13393	234.665	-48.0268	-0.199638	0	-0.436156	0.0658882	-1.90089	0.389037	12.3348	361.256	66.5304	-0.271573	0	-0.997627	0.03387	0.991969	0.182685
10.13	-7.75631	235.485	-47.9944	-0.200827	0	-0.436327	0.0627211	-1.90424	0.388104	12.4686	362.05	66.3233	-0.271249	0	-0.997664	0.0349721	1.01548	0.186024
